/* XPM */
static char *_25f78bf4bd44a46957bc68bfd3ca420tEK6la0axPyCC7rC[] = {
/* columns rows colors chars-per-pixel */
"50 50 3 1 ",
"  c None",
". c #E3EB00",
"X c #00DCEB",
/* pixels */
" . . . . . . . . . . . . . . . . . . . . . . . . .",
". . . . . . . . . . . . . . . . . . . . . . . . . ",
" . . . . . . . . . . . . . . . . . . . . . . . . .",
". . . . . . . . . . . . . . . . . . . . . . . . . ",
" . . . . . . . . . . . . . . . . . . . . . . . . .",
". . . . . . . . . . . . . . . . . . . . . . . . . ",
" . . . . . . . . . . . . . . . . . . . . . . . . .",
". . . . . XXXXXXXXXXXXXX. . . . . . . . . . . . . ",
" . . . . .XXXXXXXXXXXXXXXXXXXXXXXXX. . . . . . . .",
". . . . .XXXXXXXXXXXXXXXXXXXXXXXXXXXXX. . . . . . ",
" . . . . XXXXXXXXXXXXXXXXXXXXXXXXXXXXXXXXXX. . . .",
". . . . .XXXXX. . . .XXXXXXXXXXXXXXXXXXXXXX . . . ",
" . . . . XXXX. . . . . . . . . .XXXXXXXXXXX. . . .",
". . . . .XXXX . . . . . . . . . . .XXXXXXXX . . . ",
" . . . . XXXX. . . . . . . . . . . . . . . . . . .",
". . . . .XXXX . . . . . . . . . . . . . . . . . . ",
" . . . . XXXX. . . . . . . . . . . . . . . . . . .",
". . . . .XXXX . . . . . . . . . . . . . . . . . . ",
" . . . . XXXX. . . . . . . . . . . . . . . . . . .",
". . . . .XXXX . . . . . . . . . . . . . . . . . . ",
" . . . . XXXX. . . . . . . . . . . . . . . . . . .",
". . . . .XXXXXXXXXXXXXXXXXX . . . . . . . . . . . ",
" . . . .XXXXXXXXXXXXXXXXXXX. . . . . . . . . . . .",
". . . XXXXXXXXXXXXXXXXXXXXX . . . . . . . . . . . ",
" . . .XXXXXXXXXXXXXXXXXXXXX. . . . . . . . . . . .",
". . . XXXXXXXXXX. . . . . . . . . . . . . . . . . ",
" . . .XXXXXX . . . . . . . . . . . . . . . . . . .",
". . . . XXXX. . . . . . . . . . . . . . . . . . . ",
" . . . .XXXX . . . . . . . . . . . . . . . . . . .",
". . . . XXXX. . . . . . . . . . . . . . . . . . . ",
" . . . XXXXX . . . . . . . . . . . . . . . . . . .",
". . . .XXXXX. . . . . . . . . . . . . . . . . . . ",
" . . . XXXXX . . . . . . . . . . . . . . . . . . .",
". . . .XXXX . . . . . . . . . . . . . . . . . . . ",
" . . . XXXX. . . . . . . . . . . . . . . . . . . .",
". . . .XXXX . . . . . . . . . . . . . . . . . . . ",
" . . . XXXX. . . . . . . . . . . . . . . . . . . .",
". . . .XXXX . . . . . . . . . . . . . . . . . . . ",
" . . . XXXXX . . . . . . . . . . . . . . . . . . .",
". . . .XXXXX. . . . . . . . . . . . . . . . . . . ",
" . . . XXXXXX. . . . . . . . . XXXX. . . . . . . .",
". . . . XXXXXX. . . . . . . . XXXXX . . . . . . . ",
" . . . .XXXXXXXXX. . . . . XXXXXXXX. . . . . . . .",
". . . . .XXXXXXXXX. . . .XXXXXXXXXX . . . . . . . ",
" . . . . .XXXXXXXXXX .XXXXXXXXXXXX . . . . . . . .",
". . . . . .XXXXXXXXXXXXXXXXXXXXXX . . . . . . . . ",
" . . . . . . XXXXXXXXXXXXXXXXX . . . . . . . . . .",
". . . . . . . .XXXXXXXXXXXXX. . . . . . . . . . . ",
" . . . . . . . . XXXXXXXX. . . . . . . . . . . . .",
". . . . . . . . . . . . . . . . . . . . . . . . . "
};
