/* XPM */
static char *b92dbee49f0e40f49394a5e392172834Pf1gColSxm404hJV[] = {
/* columns rows colors chars-per-pixel */
"50 50 24 1 ",
"  c #456C2C",
". c #FF0D0D",
"X c #DF2902",
"o c #DB300B",
"O c #F43209",
"+ c #D84020",
"@ c #F46242",
"# c #65884E",
"$ c #698C52",
"% c #6C9154",
"& c #7A9E63",
"* c #7AC04C",
"= c #FF980D",
"- c #F99B1C",
"; c #EC9A2B",
": c #F6A02B",
"> c #F7A537",
", c #E7CD0A",
"< c #F9DF18",
"1 c #FFE30D",
"2 c #FEFC00",
"3 c #E8E3B9",
"4 c #F6EDB1",
"5 c #FDF7CB",
/* pixels */
"&%%%%%&%&&%%%%%%%&%%%%%%%%%%&&&%%%%%&&%%%%&&%&&&%%",
"&&&%%%%%%%&&%%%%%%%%%%&%%%%%%%%%%%%%&%%%%%%%%%&%%%",
"%%#%%%%%%%%%%%%%%%%%%%&&%%%%%%%%%%%%&&&&%%%%%%%%%%",
"%%#%&%#%%%%%#.oo.%%%%%%%&&&&%%##%%%%%#&&%%%%#%%%#%",
"%%#%%%#%%%%%%oooo.X%%%%%%%%#%%%%%%%%%#&&%%%%%%%&#%",
"%%%%%%%#%%%%%%..oo.X.%%%%####%%&#%%%%%%%&&%%%%&&#%",
"%%%%%%%#%%%#%%&ooOXXX...%%%%%%%&#%%%%%%%%%%%%%%&#%",
"%%%%&&%%%%%#%%%%.OXX@OX...%%%%&%%%%%%&#%%%%%&%%&&%",
"%%%&&%%%%%%##%%%XXXXOXOoo..%%%%%%%%%%&%%%%%%&%%%&%",
"%%%%%%%%%%%%%%%&%.oXO==@@o@@.%%%%%%#%%%%%#%%%%%#&%",
"%%%%%%%%%%%%%#%&%.o@O@X=XOXOO%%#%%%%%%%&%##%%%%#%%",
"%%&%%%*%%%%%%##&%%.@Oo>>=@OXoX%%%%%%*%%%&&%%%%%#%%",
"%%&%%%**%%%%%%#%%%XOX@>;;XX@X..X%%*%*%%%%&%%%%%%%%",
"%%%#%%**%%*%%%%%%%XXXO>;;;=OOXX.%%*%*%%%%&%%%%#&%%",
"%%%#%%** %*%%%&&&%.XXo>=====@X@X.%*%* %&%%&%%##%&%",
"%%%#%%%* ** %%%%...XXO>@=>==OXOXX%* * &%%%%%%##%%%",
"%%%%%%% ** %%%.o.o@XX=>>=;;;==OX.%*  %&#%%%%%%#%%%",
"#%%%%%%%  %%%%.oooOXX;>>;;;>>=@XX. %%%&%#%%%%%%%%%",
"%#&%%%%%%&%%%..@oo@==;>;>>;=>>=OXX%%%%&%%%%%%%%%%%",
"%%&%%%%%%&%%%.OOO@O;=>>;>>;=;;=@X..%%%&&.&&%%%%#%&",
"%%&%%%%%%&%%%.@Oo=;;>====<;>;===@o.%o%&&o%%%%%%#%&",
"%%%&%%%%%$%%..OOo==;>=<==<=>=;==OX.oo&%.o%%%%%%%%%",
"%%%&#%%%%%%%.Xo@@==;;=<,<1=;;;==OXoo%%%oo.%%%&%%%%",
"%#%%%%%%%%o%.@O@>=;>;=<=,1=>>=;;O@.%%&XOX.#&&%#%%&",
"%##%%o.%%%XOOXo>>;;=;;<1,1>=;>;=@o.&&.XXO.&%%%#%%%",
"%%#%%.o.%%oXXooo;==<=;1<;;==>=;==oXX.XXX@Xo%%%%%%%",
"%%%%%%o...@oo=o;;;:<==1<<1=<==;==;@O@X@o@o.%%%%%%%",
"%%#%%&.o@.oo.===;;;><,,<<,<<;<;;;o@XO@>OOo.%%%%%&%",
"%%%%%&.@o@@o@==>>>;;=<,,,1,<;<=;=>;>==>@XXo%&%%%%&",
"%%%%&&&.ooo@@@--=<:>>-,,,1<<,,=>;=;;;;>;Xoo&&%%%%&",
"%#%%%&%..o@;o>:;=<=;;;;1,<<1,,1==;11=>=ooo.&&%%%%&",
"%#%%%&#%.o@@:=;;=;;=>1,1,,;1<,1,1,1=>;=>@o.%&%%%%#",
"%#&%&##%..o@@;;>::<=1<,1<<1<,1<11<<>;;>@o.%%#&%%%%",
"%##&%%%*%.@oo=;:>,<11,<1<<,,,1<,<=;>>ooo..%%%&%%%%",
"%%#%%%%*%..@o@;:=1,11,<151,1,1<,<;;>;o2..%%%X%%##%",
"%%#.o.%*%*.@@o:-==<,<<,15511,,,<;=;=o...%%%X%%%#%%",
"%%%.o@.@@.@.@==:>=1,<<1135511<,1=<==..%%%..X.%%#&%",
"%%%%ooo.@@@=.=;>>;=<,<515451151<<<=.;oooo@oXX%%%&%",
"%#%%..oo...==;;1=;=115535355445<=<=;==.oo;@.#%%&%%",
"%#%%%ooo.o@@>;1,<,<=,353544355511,=<>;==;;o.#%%&%%",
"%%#%%%o@@@oo>;1<<;,1<,54434335<1;11<>>>;;;.%%%%&%%",
"%%#%%%%o@@oo=;==,11,<5,5454551<,;,<<=>;>o..%&%%%#%",
"%%%#%%%..o@@@>>>=<1,,55545343511<<>=>>@...%&%%%%#%",
"%%%#%%%%...@o+;>><1,4<5533334<33;1>;>.oo%%&&%%%%#%",
"%%%%%%%%%%.o@+@:;=,145345534353,;,>=.oo%%#&%%%%%%%",
"%%%%%&&&%%#.@@@.:>,,<545443445,,1=;.oo%%&##&&&&&&%",
"%%%%%%%%%%#@@oo.:;-,<54355553<,=>;;oo%%&%%%%%%%%%%",
"%&%%%#%%%%&&%%...>:==<3345455<=;;.oo%%%&%%%%%%##%%",
"%&&%%%#%%%%&%%&%&&&&%%%%%%%&&%%%&&&#%%&&%%%&%%%%%%",
"%&%%%%%%%%#%%%%&%%%%%%%%%%###%%%%#%%%%%&&#&%##%%%&"
};
