/* XPM */
static char *_4f0ace65b2f498dde39f503c9bc50f9kOxtjCfQN2KiFgTH[] = {
/* columns rows colors chars-per-pixel */
"50 50 3 1 ",
"  c None",
". c #00EB2B",
"X c #E3EB00",
/* pixels */
" X X X X X X X X X X X X X X X X X X X X X X X X X",
"X X X X X X X X X X X X X X X X X X X X X X X X X ",
" X X X X X X X X X X X X X X X X X X X X X X X X X",
"X X X X X X X X X X X X X X X X X X X X X X X X X ",
" X X X X X X X X X X X X X X X X X X X X X X X X X",
"X X X X X X X X X X X X X X X X X X X X X X X X X ",
" X X X X X X X X X X X X X X X X X X X X X X X X X",
"X X X X X X...................X X X X X X X X X X ",
" X X X X ......................... X X X X X X X X",
"X X X X X...........................X X X X X X X ",
" X X X X ............................X X X X X X X",
"X X X X X.....X X X X X X X...........X X X X X X ",
" X X X X ....X X X X X X X X X ....... X X X X X X",
"X X X X X.... X X X X X X X X X ......X X X X X X ",
" X X X X ....X X X X X X X X X X X.... X X X X X X",
"X X X X X.... X X X X X X X X X X.....X X X X X X ",
" X X X X ....X X X X X X X X X X...... X X X X X X",
"X X X X X.... X X X X X X X X ........X X X X X X ",
" X X X X ....X X X X X ..............X X X X X X X",
"X X X X X...........................X X X X X X X ",
" X X X X ..........................X X X X X X X X",
"X X X X X.........................X X X X X X X X ",
" X X X X ................. X X X X X X X X X X X X",
"X X X X X.... X X X X X X X X X X X X X X X X X X ",
" X X X X ....X X X X X X X X X X X X X X X X X X X",
"X X X X X.... X X X X X X X X X X X X X X X X X X ",
" X X X X ....X X X X X X X X X X X X X X X X X X X",
"X X X X X.... X X X X X X X X X X X X X X X X X X ",
" X X X X ....X X X X X X X X X X X X X X X X X X X",
"X X X X X.... X X X X X X X X X X X X X X X X X X ",
" X X X X ....X X X X X X X X X X X X X X X X X X X",
"X X X X X.... X X X X X X X X X X X X X X X X X X ",
" X X X X ....X X X X X X X X X X X X X X X X X X X",
"X X X X X.... X X X X X X X X X X X X X X X X X X ",
" X X X X ..... X X X X X X X X X X X X X X X X X X",
"X X X X X.....X X X X X X X X X X X X X X X X X X ",
" X X X X ..... X X X X X X X X X X X X X X X X X X",
"X X X X X ....X X X X X X X X X X X X X X X X X X ",
" X X X X X.... X X X X X X X X X X X X X X X X X X",
"X X X X X ....X X X X X X X X X X X X X X X X X X ",
" X X X X X X X X X X X X X X X X X X X X X X X X X",
"X X X X X X X X X X X X X X X X X X X X X X X X X ",
" X X X X X X X X X X X X X X X X X X X X X X X X X",
"X X X X X X X X X X X X X X X X X X X X X X X X X ",
" X X X X X X X X X X X X X X X X X X X X X X X X X",
"X X X X X X X X X X X X X X X X X X X X X X X X X ",
" X X X X X X X X X X X X X X X X X X X X X X X X X",
"X X X X X X X X X X X X X X X X X X X X X X X X X ",
" X X X X X X X X X X X X X X X X X X X X X X X X X",
"X X X X X X X X X X X X X X X X X X X X X X X X X "
};
