/* XPM */
static char *d3d55d1a2c3f41a4b4a163ac971aea923ozKC4Zqal3K4c6h[] = {
/* columns rows colors chars-per-pixel */
"50 50 44 1 ",
"  c #6C9154",
". c #7A9E63",
"X c #65884E",
"o c #2A1D0D",
"O c #281C0B",
"+ c #342512",
"@ c #9D6A4C",
"# c #AA7D66",
"$ c #805334",
"% c #815339",
"& c #7A4E33",
"* c #2B1E0D",
"= c #2C1E0E",
"- c #AC765A",
"; c #9C694C",
": c white",
"> c #A26A47",
", c #8F5E3E",
"< c #83553B",
"1 c #3F2A15",
"2 c #BD8E74",
"3 c #BB8972",
"4 c #523D89",
"5 c #BE886C",
"6 c #774235",
"7 c #BD8B72",
"8 c #422A12",
"9 c #9C725C",
"0 c #6A4030",
"q c #332411",
"w c #C69680",
"e c #AD806D",
"r c #B57B67",
"t c #805136",
"y c #2F1F0F",
"u c #BD8E72",
"i c #B78272",
"p c #B6896C",
"a c #B4846D",
"s c #B37B62",
"d c #965F40",
"f c #2F200D",
"g c #905E43",
"h c #6F452C",
/* pixels */
"                   ..  .    ...X                 .",
"  ooooooOOOOOO++++++@@@@@@######$$$$$$%%%%%%&&&&&&",
". ooooooOOOOOO++++++@@@@@@######$$$$$$%%%%%%&&&&&&",
"..ooooooOOOOOO++++++@@@@@@######$$$$$$%%%%%%&&&&&&",
". ooooooOOOOOO++++++@@@@@@######$$$$$$%%%%%%&&&&&&",
"  **ooooOOOOOO++++++@@@@@@######$$$$$$%%%%%%&&&&&&",
". **ooooOOOOOO++++++@@@@@@######$$$$$$%%%%%%&&&&&&",
". ******======------;;;;;;::::::>>>>>>,,,,,,<<<<<<",
"  ******======------;;;;;;::::::>>>>>>,,,,,,<<<<<<",
"  ******======------;;;;;;::::::>>>>>>,,,,,,<<<<<<",
"  ******======------;;;;;;::::::>>>>>>,,,,,,<<<<<<",
"  ******======------;;;;;;::::::>>>>>>,,,,,,<<<<<<",
". ******======------;;;;;;::::::>>>>>>,,,,,,<<<<<<",
"..OOOOOO111111222222333333444444555555666666<<<<<<",
"  OOOOOO111111222222333333444444555555666666<<<<<<",
"  OOOOOO111111222222333333444444555555666666<<<<<<",
"  OOOOOO111111222222333333444444555555666666<<<<<<",
"  OOOOOO111111772222333333444444555555666666<<<<<<",
"  OOOOOO111111772222333333444444555555666666<<<<<<",
". OOOOOO888888777777999999333333000000666666&&&&&&",
". OOOOOO888888777777999999333333000000666666&&&&&&",
". OOOOOO888888777777999999333333000000666666&&&&&&",
"  OOOOOO888888777777999999333333000000666666&&&&&&",
"  OOOOOO888888777777999999333333000000666666&&&&&&",
"  OOOOOO888888777777999999333333000000666666&&&&&&",
"  OOOOOOqqqqqqwwwwwweeeeeerrrrrr000000666666tttttt",
"  OOOOOOqqqqqqwwwwwweeeeeerrrrrr000000666666tttttt",
" .OOOOOOqqqqqqwwwwwweeeeeerrrrrr000000666666tttttt",
"  OOOOOOqqqqqqwwwwwweeeeeerrrrrr000000666666tttttt",
"  OOOOOOqqqqqqwwwwwweeeeeerrrrrr000000666666tttttt",
"  OOOOOOqqqqqqwwwwwweeeeeerrrrrr000000666666tttttt",
"  yyyyyy******uuuuuu######444444iiiiii666666%%%%%%",
". yyyyyy******uuuuuu######444444iiiiii666666%%%%%%",
"  yyyyyy******uuuuuu######444444iiiiii666666%%%%%%",
"  yyyyyy******uuuuuu######444444iiiiii666666%%%%%%",
"  **yyyy******uuuuuu######444444iiiiii666666%%%%%%",
"  **yyyy******uuuuuu######444444iiiiii666666%%%%%%",
"  ************ppppppaaaaaa::::::ssssssdddddd&&&&&&",
" .************ppppppaaaaaa::::::ssssssdddddd&&&&&&",
" .************ppppppaaaaaa::::::ssssssdddddd&&&&&&",
". ************ppppppaaaaaa::::::ssssssdddddd&&&&&&",
". ff**********ppppppaaaaaa::::::ssssssdddddd&&&&&&",
"  ff**********ppppppaaaaaa::::::ssssssdddddd&&&&&&",
". ffffff************######aaaaaa######gggggghhhhhh",
"  ffffff************######aaaaaa######gggggghhhhhh",
"  ffffff************######aaaaaa######gggggghhhhhh",
"  ffffff************######aaaaaa######gggggghhhhhh",
" .ffffffoo****OO****######aaaaaa######gggggghhhhhh",
" .ffffffoo****OO****######aaaaaa######gggggghhhhhh",
"..               X                                "
};
