/* XPM */
static char *e41da3fac54a460ab678526b8adc9081NjxLuDYSXxplJVAY[] = {
/* columns rows colors chars-per-pixel */
"50 50 41 1 ",
"  c #281C0B",
". c #2B1E0D",
"X c #2F1F0F",
"o c #2F200D",
"O c #332411",
"+ c #342512",
"@ c #3F2A15",
"# c #422A12",
"$ c #6F452C",
"% c #6A4030",
"& c #774235",
"* c #7A4E33",
"= c #805334",
"- c #805136",
"; c #815339",
": c #83553B",
"> c #8F5E3E",
", c #905E43",
"< c #965F40",
"1 c #9D6A4C",
"2 c #9C725C",
"3 c #A26A47",
"4 c #AC765A",
"5 c #AA7D66",
"6 c #B37B62",
"7 c #B57B67",
"8 c #65884E",
"9 c #6C9154",
"0 c #7A9E63",
"q c #AD806D",
"w c #B4846D",
"e c #B6896C",
"r c #BE886C",
"t c #B78272",
"y c #BB8972",
"u c #BD8B72",
"i c #BD8E72",
"p c #BD8E74",
"a c #523D89",
"s c #C69680",
"d c white",
/* pixels */
"09999909009999999099999999990009999900999900900099",
"00099999990099999999990999999999999909999999990999",
"9oooooooo......XXXX                  ............9",
"9oooooooo......XXXX                  ............9",
"9oooooo......XXXXXX                  ............9",
"9oooooo......XXXXXX                  ............9",
"9oooooo......XXXXXX                  ............9",
"9oooooo......XXXXXX                  ............9",
"9..................OOOOOO######@@@@@@XX.XXX      9",
"9..................OOOOOO######@@@@@@XXXXXX      9",
"9..................OOOOOO######@@@@@@XXXXXX      9",
"9..................OOOOOO######@@@@@@XXXXXX      9",
"9..................OOOOOO######@@@@@@XXX...      9",
"9..................OOOOOO######@@@@@@XXX...      9",
"9  ....eeeeeeiiiiiissssssuuuuuuuupppp444444O+++++9",
"9  ....eeeeeeiiiiiissssssuuuuuuuupppp444444O+++++9",
"9......eeeeeeiiiiiissssssuuuuuupppppp444444++++++9",
"8......eeeeeeiiiiiissssssuuuuuupppppp444444++++++9",
"9......eeeeeeiiiiiissssssuuuuuupppppp444444++++++9",
"9......eeeeeeiiiiiissssssuuuuuupppppp444444++++++0",
"9555555wwwwww555555qqqqqq222222yyyyyy1111111111110",
"9555555wwwwww555555qqqqqq222222yyyyyy1111111111119",
"9555555wwwwww555555qqqqqq222222yyyyyy1111111111119",
"9555555wwwwww555555qqqqqq222222yyyyyy1111111111110",
"9555555wwwwww555555qqqqqq222222yyyyyy1111111111119",
"9555555wwwwww555555qqqqqq222222yyyyyy1111111111119",
"9wwwwwwddddddaaaaaa777777yyyyyyaaaaaadddddd5555559",
"9wwwwwwddddddaaaaaa777777yyyyyyaaaaaadddddd5555559",
"9wwwwwwddddddaaaaaa777777yyyyyyaaaaaadddddd5555550",
"9wwwwwwddddddaaaaaa777777yyyyyyaaaaaadddddd5555550",
"9wwwwwwddddddaaaaaa777777yyyyyyaaaaaadddddd5555550",
"9wwwwwwddddddaaaaaa777777yyyyyyaaaaaadddddd5555558",
"9555555666666tttttt%%%%%%%%%%%%rrrrrr333333------9",
"9555555666666tttttt%%%%%%%%%%%%rrrrrr333333------9",
"9555555666666tttttt%%%%%%%%%%%%rrrrrr333333------9",
"9555555666666tttttt%%%%%%%%%%%%rrrrrr333333------9",
"9555555666666tttttt%%%%%%%%%%%%rrrrrr333333------9",
"9555555666666tttttt%%%%%%%%%%%%rrrrrr333333------9",
"9,,,,,,<<<<<<&&&&&&&&&&&&&&&&&&&&&&&&>>>>>>;::;:;9",
"9,,,,,,<<<<<<&&&&&&&&&&&&&&&&&&&&&&&&>>>>>>:::::;9",
"9,,,,,,<<<<<<&&&&&&&&&&&&&&&&&&&&&&&&>>>>>>;;;;;;9",
"9,,,,,,<<<<<<&&&&&&&&&&&&&&&&&&&&&&&&>>>>>>;;;;;;9",
"9,,,,,,<<<<<<&&&&&&&&&&&&&&&&&&&&&&&&>>>>>>;;;;;;9",
"9,,,,,,<<<<<<&&&&&&&&&&&&&&&&&&&&&&&&>>>>>>;;;;;;9",
"9$$$$$$******;;;;;;------******::::::::::::******9",
"9$$$$$$******;;;;;;------******::::::::::::******9",
"9$$$$$$******;;;;;;------******::::::::::::******9",
"9$$$$$$******;;;;;;------******::::::::::::******9",
"9$$$$$$******;;;;;;------******::::::::::::******9",
"9$$$$$$******;;;;;;------******::::::::::::******0"
};
