/* XPM */
static char *df5273eaa8d64c77c1b89335bb15fb56oIhrwsgomlXq0KYm[] = {
/* columns rows colors chars-per-pixel */
"50 50 10 1 ",
"  c #456C2C",
". c #B73434",
"X c #65884E",
"o c #698C52",
"O c #6C9154",
"+ c #7A9E63",
"@ c #7AC04C",
"# c #FEFC00",
"$ c #0018FE",
"% c #E311EB",
/* pixels */
"+OOOOO+O++OOOOOOO+OOOOOOOOOO+++OOOOO++OOOO++O+++OO",
"+++OOOOOOO++OOOOOOOOOO+OOOOOOOOOOOOO+OOOOOOOOO+OOO",
"OOXOOOOOOOOOOOOOOOOOOO++OOOOOOOOOOOO++++OOOOOOOOOO",
"OOXO+OXOOOOOXOOOOOOOOOOO++++OOXXOOOOOX++OOOOXOOOXO",
"OOXOOOXOOOOOOO+O%OOOOOOOOOOXOOOOOOOOOX++OOOOOOO+XO",
"OOOOOOOXOOOOOO+%#%OOOOOOOXXXXOO+XOOOOOOO++OOOO++XO",
"OOOOOOOXOOOXOO+O%OOO+OOOOOOOOOO+XOOOOOOOOOOOOOO+XO",
"OOOO++OOOOOXOOOOOOOO+OOOOOOOOO+OOOOOO+XOOOOO+OO++O",
"OOO++OOOOOOXXOOOOOOO+XOOOOOOOOOOOOOOO+OOOOOO+OOO+O",
"OOOOOOOOOOOOOOO+OOOO+OOOOOOXOOOOOOOXOOOOOXOOOOOX+O",
"OOOOOOOOOOOOOXO+OOOO++OOOOXXOOOXOOOOOOO+OXXOOOOXOO",
"OO+OOO@OOOOOOXX+OOOOOOOOOOXOOOOOOOOO@OOO++OOOOOXOO",
"OO+OOO@@OOOOOOXOOOOOOOOXXXOOOOOOOO@O@OOOO+OOOOOOOO",
"OOOXOO@@OO@OOOOOOOOOOOOOOOOOOOOOOO@O@OOOO+OOOOX+OO",
"OOOXOO@@ O@OOO+++OOOOOOOOOO+XOOOOO@O@ O+OO+OOXXO+O",
"OOOXOOO@ @@ OOOOOOX++++OOOO++OOOOO@ @ +OOOOOOXXOOO",
"OOOOOOO @@ OOOOOOXOOOOX+OOOXOOOOOO@  O+XOOOOOOXOOO",
"XOOOOOOO  OOOOOOXXOOOOXO++OOOOOOOO OOO+OXOOOOOOOOO",
"OX+OOOOOO+OOOOOOOOOOOOXXXO+OOOOOOOOOOO+OOOOOOOOOOO",
"OO+OOOOOO+OOOOOOOOOOOOXOOOOOOOOOOOOOOO++O++OOOOXO+",
"OO+OOOOOO+OOOXOOXOOOOOOOOOOXOOO+OOOOOO++OOOOOOOXO+",
"OOO+OOOOOoOOOOOO+OOOOOO.OOOXOOO+OOOO++O+OOOOOOOOOO",
"OOO+XOOOOOOOOOOOO++OOO.#.OOOXOO+XOOOOOOOOOOOO+OOOO",
"OXOOOOOOOOOOOOXOOOO+OOO.OOOOOOOXOOOOO+OOOOX++OXOO+",
"OXXOOOXOOOOOOOOO++OO++OOOOOOO+XXOOO++O+OO++OOOXOOO",
"OOXOOOXOOOOOOOOOO+OOO+OOOOOOO+OOOOO+O+OOO+OOOOOOOO",
"OOOOOOOXOOOOOOOOO+OOOOOOOOOO++OOOOO++OOO+OXOOOOOOO",
"OOXOO+OX+OOOOXOOO+OOOOOOOOO++OOOOOOXXXO+OOOOOOOO+O",
"OOOOO+OXX+OOOXOOOOOOOOOOOO+++OO++++++++OOOOO+OOOO+",
"OOOO+++OOOOOXOOOOOOOXOO+++XXOOOOOXOOOOOOOOO++OOOO+",
"OXOOO+OOOOOOO+OOO++XXOOOOOXOOOOOOXOOXXXOOOO++OOOO+",
"OXOOO+XOOOOOOO++O+++++++OOOOOOOOOOOOOOOOOOOO+OOOOX",
"OX+O+XXOOOOOOOO+OOXOOOOOOOOOOOOOO+OOOOOOOOOOX+OOOO",
"OXX+OOO@OOOOOOXXOOOOOOOOOOOOOO+OO++OOO$OOOOOO+OOOO",
"OOXOOOO@O@OOOOXOOOOOOOXOO@OOOO+OOOOOO$#$OOOOOOOXXO",
"OOXOOXO@O@OOOOOXXOOOO@XO@@OOO++O+OOOOO$OOOOOOOOXOO",
"OOOOOXO@ @OOOOOOOOOOO@OO@@OOO+OO++OOOOOOOOOOOOOX+O",
"OOOOOXO@ @ OOOOOO+OOO@ O@@ OOOOXO+OOOOOOO+OOXOOO+O",
"OXOOOOO O@ OOOOOO+XOO@@ @ OOOOOOOOOOOOOO+OOOXOO+OO",
"OXOOOOOOO OOOOOOO+OOOO@@ OOOXOOOOOOOOOO+++OOXOO+OO",
"OOXOOOXOOOOOOXOOO+OOOO  OOOOOOOOXXOO++++OOOOOOO+OO",
"OOXOOOOXOOOOOX+OOOOOOOOOOOOOOOOOXOOO++OOOOXO+OOOXO",
"OOOXOOOOOOO+++OOOOOOXOOOOOOOOXOOOOO+OOOOOOO+OOOOXO",
"OOOXOOOOO++XOOOOOOOOXOOOOOOO++OOOOOOXOOOOO++OOOOXO",
"OOOOOOOOOOOXOOOOOXXOOXXOOOOO+OOOOOO+OOOOOX+OOOOOOO",
"OOOOO+++OOXOOOOOOOOXXXOOO++OOOOOXO++OOOO+XX++++++O",
"OOOOOOOOOOXOOOOOOOOOOOO+++OOOOOXOO+OOOO+OOOOOOOOOO",
"O+OOOXOOOO++OOOOO++XOOOOO++O+OOOOO+XOOO+OOOOOOXXOO",
"O++OOOXOOOO+OO+O++++OOOOOOO++OOO+++XOO++OOO+OOOOOO",
"O+OOOOOOOOXOOOO+OOOOOOOOOOXXXOOOOXOOOOO++X+OXXOOO+"
};
