/* XPM */
static char *f42e9740590b4c10ccf9ecd87569b270Ytb3wUOyKUG6Q9R5[] = {
/* columns rows colors chars-per-pixel */
"50 50 7 1 ",
"  c #410000",
". c #612121",
"X c #B73C00",
"o c #8E3D3D",
"O c #954E4E",
"+ c #E68E62",
"@ c #E99F7A",
/* pixels */
"                                                  ",
"                                                  ",
"  XX++++++++  ++++++XX++++++++++++  XX++++++++++  ",
"  XX++++++++  ++++++XX++++++++++++  XX++++++++++  ",
"  XXXXXXXXXX  ++XXXXXXXXooXXXXXX++  ++XXXXooXXXX  ",
"  XXXXXXXXXX  ++XXXXXXXXooXXXXXX++  ++XXXXooXXXX  ",
"  ooXXXX..XX  XXXXXX++XXXXoo..XXXX  ooXXXXXX....  ",
"  ooXXXX..XX  XXXXXX++XXXXoo..XXXX  ooXXXXXX....  ",
"  ooXXoo++XX  ooXXooXXXXXX++OOXXOO  ..ooXXXXXXXX  ",
"  ooXXoo++XX  ooXXooXXXXXX++OOXXOO  ..ooXXXXXXXX  ",
"  ..........  ........++..........  ....++......  ",
"  ..........  ........++..........  ....++......  ",
"                                                  ",
"                                                  ",
"  ++++++++XX+++++++XX  ++++++++XXX++++++++++++++  ",
"  ++++++++XX+++++++XX  ++++++++XXX++++++++++++++  ",
"  XXXXXXXXXXXXXXXXX++  XXooXXooXXXXXXX++XX++++++  ",
"  XXXXXXXXXXXXXXXXX++  XXooXXooXXXXXXX++XX++++++  ",
"  XX..XXXXXXoo..XXXXX  XXXXXXXXXXXXXoo..XXXX++++  ",
"  XX..XXXXXXoo..XXXXX  XXXXXXXXXXXXXoo..XXXX++++  ",
"  XX@@ooXXXXXXXXXoo..  ..XXooooXXXooXXooooXXXXXX  ",
"  XX@@ooXXXXXXXXXoo..  ..XXooooXXXooXXooooXXXXXX  ",
"  .............++....  .........................  ",
"  .............++....  .........................  ",
"                                                  ",
"                                                  ",
"  XX++++++++  ++++++XX++++++++++++  XX++++++++++  ",
"  XX++++++++  ++++++XX++++++++++++  XX++++++++++  ",
"  XXXXXXXXXX  ++XXXXXXXXooXXXXXX++  ++XXXXooXXXX  ",
"  XXXXXXXXXX  ++XXXXXXXXooXXXXXX++  ++XXXXooXXXX  ",
"  ooXXXX..XX  XXXXXX++XXXXoo..XXXX  ooXXXXXX....  ",
"  ooXXXX..XX  XXXXXX++XXXXoo..XXXX  ooXXXXXX....  ",
"  ooXXoo++XX  ooXXooXXXXXX++ooXXoo  ..ooXXXXXXXX  ",
"  ooXXoo++XX  ooXXooXXXXXX++ooXXoo  ..ooXXXXXXXX  ",
"  ..........  ........++..........  ....++......  ",
"  ..........  ........++..........  ....++......  ",
"                                                  ",
"                                                  ",
"  ++++++++XX+++++++XX  ++++++++XXX++++++++++++++  ",
"  ++++++++XX+++++++XX  ++++++++XXX++++++++++++++  ",
"  XXXXXXXXXXXXXXXXX++  XXooXXooXXXXXXX++XX++++++  ",
"  XXXXXXXXXXXXXXXXX++  XXooXXooXXXXXXX++XX++++++  ",
"  XX..XXXXXXoo..XXXXX  XXXXXXXXXXXXXoo..XXXX++++  ",
"  XX..XXXXXXoo..XXXXX  XXXXXXXXXXXXXoo..XXXX++++  ",
"  XX++ooXXXXXXXXXoo..  ..XXooooXXXooXXooooXXXXXX  ",
"  XX++ooXXXXXXXXXoo..  ..XXooooXXXooXXooooXXXXXX  ",
"  .............++....  .........................  ",
"  .............++....  .........................  ",
"                                                  ",
"                                                  "
};
