/* XPM */
static char *ed489c466bc7430be72e03676dfa039ctYIKBBCB8NSmnZgg[] = {
/* columns rows colors chars-per-pixel */
"50 50 16 1 ",
"  c #7D6600",
". c #456C2C",
"X c #957A00",
"o c #65884E",
"O c #6C9154",
"+ c #7A9E63",
"@ c #7AC04C",
"# c #AD8E00",
"$ c #AF940C",
"% c #BC9A01",
"& c #C2A40B",
"* c #D5AE00",
"= c #EBC000",
"- c #FEFC00",
"; c #E311EB",
": c #FFFBE7",
/* pixels */
"+OOOOO+O++OOOOOOO+OOOOOOOOOO+++OOOOO++OOOO++O+++OO",
"+++OOOOOOO++OOOOOOOOOO+OOOOOOOOOOOOO+OOOOOOOOO+OOO",
"OOoOOOOOOOOOOOOOOOOOOO++OOOOOOOOOOOO++++OOOOOOOOOO",
"OOoO+OoOOOOOoOOOOOOOOOOO++++OOooOOOOOo++OOOOoOOOoO",
"OOoOOOoOOOOOOO+O;OOOOOOOOOOoOOOOOOOOOo++OOOOOOO+oO",
"OOOOOOOoOOOOOO+;-;OOOOOOOooooOO+oOOOOOOO++OOOO++oO",
"OOOOOOOoOOOoOO+O;OOO+OOOOOOOOOO+oOOOOOOOOOOOOOO+oO",
"OOOO++OOOOOoOOOOOOOO          +OOOOOO+oOOOOO+OO++O",
"OOO++OOOOOOooOOOO   XXXXXXXXXX   OOOO+OOOOOO+OOO+O",
"OOOOOOOOOOOOOOO  XXX**********XXX  oOOOOOoOOOOOo+O",
"OOOOOOOOOOOOOo XX****************XX OOO+OooOOOOoOO",
"OO+OOO@OOOOOO XX****==========****XX OOO++OOOOOoOO",
"OO+OOO@@OOOO XX:**==============***XX OOO+OOOOOOOO",
"OOOoOO@@OO@ XX:**================***XX OO+OOOOo+OO",
"OOOoOO@@.O XX:**=====########=====***XX OO+OOooO+O",
"OOOoOOO@. XX:**====##%%%%%%%%##====***XX OOOOooOOO",
"OOOOOOO.@ X***====#%%%******%%%#====***X OOOOOoOOO",
"oOOOOOOO X***====#%%:*======**%%#====***X OOOOOOOO",
"Oo+OOOOO X**====#%::==========**%#====**X OOOOOOOO",
"OO+OOOOO X**===#%%:============*&&$===**X +OOOOoO+",
"OO+OOOO X**====#%:====#**#****==*&$====**X OOOOoO+",
"OOO+OOO X**===#%%*====#**#*#**==*&&$===**X OOOOOOO",
"OOO+oOO X**===#%*====#**===#**===*&$===**X OO+OOOO",
"OoOOOOO X**===#%*====#**==#**====*&$===**X ++OoOO+",
"OooOOOo X**===#%*===#**===#**====*&$===**X OOOoOOO",
"OOoOOOo X**===#%*===#**==#**=====*&$===**X OOOOOOO",
"OOOOOOO X**===#%*==#*****#**#*===*&$===**X OOOOOOO",
"OOoOO+O X**===#%*==#*****#****===:&$===**X OOOOO+O",
"OOOOO+O X**===#%%*====#**=======:&&$===**X O+OOOO+",
"OOOO+++ X**====#%*====#**=======:&$====**X ++OOOO+",
"OoOOO+OO X**===#%%*============:&&$===**X O++OOOO+",
"OoOOO+oO X**====#%**==========::&$====**X OO+OOOOo",
"Oo+O+ooO X***====#%%**======::&&$====**:X OOo+OOOO",
"Ooo+OOO@O X***====#%%%*****:%%%$====**:X OOOO+OOOO",
"OOoOOOO@O XX***====##%%%%%%%%##====**:XX OOOOOOooO",
"OOoOOoO@O@ XX***=====########=====**:XX OOOOOOOoOO",
"OOOOOoO@.@O XX***================**:XX OOOOOOOOo+O",
"OOOOOoO@.@.O XX***==============**:XX OOO+OOoOOO+O",
"OoOOOOO.O@.OO XX****===========**:XX OOO+OOOoOO+OO",
"OoOOOOOOO.OOOO XX***************:XX OOO+++OOoOO+OO",
"OOoOOOoOOOOOOoO  XXX**********XXX  O++++OOOOOOO+OO",
"OOoOOOOoOOOOOo+OO   XXXXXXXXXX   OOO++OOOOoO+OOOoO",
"OOOoOOOOOOO+++OOOOOO          OOOOO+OOOOOOO+OOOOoO",
"OOOoOOOOO++oOOOOOOOOoOOOOOOO++OOOOOOoOOOOO++OOOOoO",
"OOOOOOOOOOOoOOOOOooOOooOOOOO+OOOOOO+OOOOOo+OOOOOOO",
"OOOOO+++OOoOOOOOOOOoooOOO++OOOOOoO++OOOO+oo++++++O",
"OOOOOOOOOOoOOOOOOOOOOOO+++OOOOOoOO+OOOO+OOOOOOOOOO",
"O+OOOoOOOO++OOOOO++oOOOOO++O+OOOOO+oOOO+OOOOOOooOO",
"O++OOOoOOOO+OO+O++++OOOOOOO++OOO+++oOO++OOO+OOOOOO",
"O+OOOOOOOOoOOOO+OOOOOOOOOOoooOOOOoOOOOO++o+OooOOO+"
};
