/* XPM */
static char *_6ee3491ccf44c63ebe375665841bf98iirTYO3VnwcUdhGE[] = {
/* columns rows colors chars-per-pixel */
"50 50 26 1 ",
"  c #0E0E0E",
". c gray9",
"X c #3B2800",
"o c #3F2B00",
"O c #2A2A2A",
"+ c #343434",
"@ c #393838",
"# c #463000",
"$ c #483202",
"% c #624401",
"& c #6E4B00",
"* c #714F03",
"= c #755000",
"- c #7D5600",
"; c #EB1611",
": c #65884E",
"> c #6C9154",
", c #7A9E63",
"< c #7AC04C",
"1 c #EBA611",
"2 c #D9EB11",
"3 c #80CA50",
"4 c #1169EB",
"5 c #B311EB",
"6 c #E311EB",
"7 c #11EBAC",
/* pixels */
",>>>>>,>,,>>>>>>>,>>>>>>>>>>,,,>>>>>,,>>>>,,>,,,>>",
",,,>>>>>>>,,>>>>>>>>>>,4>>>>>>7>>>>>,>>>>>>>>>,>>>",
">>:>>>>>>>>>>>3<>>>><<424><<>727<<>>,,,,>>>>>>>>>>",
">>:>,>:>>>>>:><6<<<<<><4<33,<37<3>;<>:,,>>>>:>>>:>",
">>:>>>:>>>>><>626><<1<<oX$<o$3<><;2;><<,>>6>>>>,:>",
">>>>>>>:>>>33<<6#$o121$ooo<7X<oo3o;<<>1>,626>>,,:>",
">>>>>>>:>><1<<X<<ooo1<%=#o727<#X3XXo<1213<6>>>>,:>",
">>>>,,>4>3121XoX<<%==<=&o$=7*==%<=$Xoo1<<>>>,>>,,>",
">>>,,>424<>1o#==%%=&*=*&oX==%=*3=%<=3<<>><<>,>>>,>",
">>>>>>>4<>oo<<%&&==&==%=oX%&&=-==&=<;333>:7>>>>:,>",
">>>>>>>33<o$=<5=***&*=&%#X=%%==&-&=;2;X<<727>>>:>>",
">>,>>>3>#<X=&525**&=*=&%XX=&==*&*&**;%=#<o7>>>>:>>",
">>,>>>:<o<=%&&5***-*=&%=X$%&==***==*=%%=<3<<1>>>>>",
">>>:>><oo3&%**==&=&==&%=o#*-=%*=-&=-*==533o121:,>>",
">>>:>>5o<==**&=-==&==&%=$o%&==&=*&==&=525X3<1::>,>",
">>>:>5253&==&==*-**=&&=%Xo=%==&==&=*&=&5<=3#<::>>>",
">>>>><5#3%=**==*=**&=&=%Xo%&==&-=&*-*=&=&%<3><:>>>",
":>>>><o#<1==--*--*=-*&%=Xo=&%&&**==&=*&%&=o<3<>>>>",
">:,><3o<121--**====-**%%oX%&=&**-=-&=*&%%=X<63>>>>",
">>,>>><<<1=--=&==*==%=%=X$=%%===&==**=&=&=<626>:>,",
">>,>>>  <<@+O@OO@OO@+OO+  +@O++@O@+@OO@@+O<.6>>:>,",
">>>,>>6<3===&-==&====%=%oX%=&*-=*==---&=&7o<>>>>>>",
">>>,:6263=&==-&=&&===&==$o%=%*==-&&===&=727<<,>>>>",
">:>>>>63<<--=&==&=&==&%%Xo====*===&==-==%7X<,<:>>,",
">::>3<oo=<*--&=*=-**=&&%oo%&==&=*===**===%$<><:>>>",
">>:>>3oo<3*=***=--&*=&=%oX%&==&==--==&==&=3X><>>>>",
">>>>><o3<&*==-===***=&==o#%&-*--*&*=--=%&3<X<>>>>>",
">>:>><;<<&*-=*-**&&=&===oX=&==&==&===-=*1<XX<;>>,>",
">>>>>;2;3%**==-=&===&==%o$=&==&&===-=-=121X<;2;>>,",
">>>>,,;3<%-*----&=--&==%Xo**=--&*-*-===*1*<<<;>>>,",
">:>>>,o<=&=*=-=-&==-==@Ooo@O****=-**--=&==<X<<>>>,",
">:>>>,o<<&-*=-=&==*=-=%=$#%==*=&=-***=*==%<#,<>>>:",
">:,>,:Xo<&=*-==&==-===&=o#&==-=&-*=&*=*=6-<<:<>>>>",
">::,>7<<3<==-*&-*===&=&=oo&==-**--=&==*626<X><4>>>",
">>:>727X<%==-=*-*=*=&=%=oo%%=*=&=&=*-==%6<<<>424:>",
">>:>>73<3&==&=*=====&=%*oX&%**&==&-&-*=%<=o<<>4:>>",
">>>>><3<<6==--&=-&==&==%oo&==*&-=&--=**-<<oX<>>:,>",
">>>>3<oX626=&-&==&==&===$o%&==**===**&=&%<7o<>>>,>",
">:>>>1<#<6===-&=&-==&==%oo*&&=&=***&=&=&-727<>>,>>",
">:>>121<<<=&=-*=&=*=&=&%o#%%==&=--=&=-=&%%7<<3>,>>",
">>:>>1X<<<=&=**=&*==*=&=oX=&==---=-&*--&=%3#<3<,>>",
">>:>>>X<=<=&**==&*=&==%=oo=&===&===&=&=&=3<$,>3>:>",
">>>:>><#=<=--*-=*==&=%%=oo%%===&*==&-&==%<o#>4>>:>",
">>>:><<X%6-**===&=**=%==#o=%=%=--=====&%=3#$424>:>",
">>>>;>< 626@@OO@O+@@@+@O  +@@@@OO+@+@O+@+<5<>4>>>>",
">>>;2;<<%6==-*===-*===-=oo*-=*=**&&=-&==<525,,,,,>",
">>>>;>33=&**=-=&**=**-==oo=--=***-===*=*=&5<3>>>>>",
">,>>>33o%&**&==&=*=&-=&&Xo=&=*-&==**==%==<3o<1::>>",
">,,>><oX%%==%=&%=&==&==&$o=&===&%=%*%-=&%3<X121>>>",
">,>>>3oo=%&%&=%==%=&===&oo&&=%=%===%=%=%=%3$:1>>>,"
};
