/* XPM */
static char *_d35e2c34d4f4587fcf77f0030394891oddYsUy8P8z1QBrd[] = {
/* columns rows colors chars-per-pixel */
"50 50 44 1 ",
"  c #7A9E63",
". c #7A4E33",
"X c #83553B",
"o c #805136",
"O c #815339",
"+ c #6F452C",
"@ c #6C9154",
"# c #8F5E3E",
"$ c #774235",
"% c #965F40",
"& c #905E43",
"* c #805334",
"= c #A26A47",
"- c #BE886C",
"; c #6A4030",
": c #B78272",
"> c #B37B62",
", c #AA7D66",
"< c #65884E",
"1 c white",
"2 c #523D89",
"3 c #BB8972",
"4 c #B57B67",
"5 c #B4846D",
"6 c #9D6A4C",
"7 c #9C694C",
"8 c #9C725C",
"9 c #AD806D",
"0 c #342512",
"q c #AC765A",
"w c #BD8E74",
"e c #BD8B72",
"r c #C69680",
"t c #BD8E72",
"y c #B6896C",
"u c #2B1E0D",
"i c #281C0B",
"p c #2C1E0E",
"a c #3F2A15",
"s c #422A12",
"d c #332411",
"f c #2A1D0D",
"g c #2F1F0F",
"h c #2F200D",
/* pixels */
" ......XXXXXXXXXXXX......ooooooOOOOOO......++++++@",
"@......XXXXXXXXXXXX......ooooooOOOOOO......++++++@",
"@......XXXXXXXXXXXX......ooooooOOOOOO......++++++@",
"@......XXXXXXXXXXXX......ooooooOOOOOO......++++++@",
"@......XXXXXXXXXXXX......ooooooOOOOOO......++++++@",
"@......XXXXXXXXXXXX......ooooooOOOOOO......++++++@",
"@OOOOOO######$$$$$$$$$$$$$$$$$$$$$$$$%%%%%%&&&&&&@",
"@OOOOOO######$$$$$$$$$$$$$$$$$$$$$$$$%%%%%%&&&&&&@",
"@OOOOOO######$$$$$$$$$$$$$$$$$$$$$$$$%%%%%%&&&&&&@",
"@OOOOOO######$$$$$$$$$$$$$$$$$$$$$$$$%%%%%%&&&&&&@",
"@OOOOOO######$$$$$$$$$$$$$$$$$$$$$$$$%%%%%%&&&&&&@",
"@OOOOOO######$$$$$$$$$$$$$$$$$$$$$$$$%%%%%%&&&&&&@",
"@******======------;;;;;;;;;;;;::::::>>>>>>,,,,,,@",
"@******======------;;;;;;;;;;;;::::::>>>>>>,,,,,,@",
"@******======------;;;;;;;;;;;;::::::>>>>>>,,,,,,@",
"@******======------;;;;;;;;;;;;::::::>>>>>>,,,,,,@",
"@******======------;;;;;;;;;;;;::::::>>>>>>,,,,,,@",
"@******======------;;;;;;;;;;;;::::::>>>>>>,,,,,,@",
"<,,,,,,111111222222333333444444222222111111555555@",
" ,,,,,,111111222222333333444444222222111111555555@",
" ,,,,,,111111222222333333444444222222111111555555@",
" ,,,,,,111111222222333333444444222222111111555555@",
"@,,,,,,111111222222333333444444222222111111555555@",
"@,,,,,,111111222222333333444444222222111111555555@",
"@666666777777333333888888999999,,,,,,555555,,,,,,@",
"@666666777777333333888888999999,,,,,,555555,,,,,,@",
" 666666777777333333888888999999,,,,,,555555,,,,,,@",
"@666666777777333333888888999999,,,,,,555555,,,,,,@",
"@666666777777333333888888999999,,,,,,555555,,,,,,@",
" 666666777777333333888888999999,,,,,,555555,,,,,,@",
" 000000qqqqqqwwwwwweeeeeerrrrrrttttttyyyyyyuuuuuu@",
"@000000qqqqqqwwwwwweeeeeerrrrrrttttttyyyyyyuuuuuu@",
"@000000qqqqqqwwwwwweeeeeerrrrrrttttttyyyyyyuuuuuu<",
"@000000qqqqqqwwwwwweeeeeerrrrrrttttttyyyyyyuuuuuu@",
"@000000qqqqqqwwwweeeeeeeerrrrrrttttttyyyyyyuuuuii@",
"@000000qqqqqqwwwweeeeeeeerrrrrrttttttyyyyyyuuuuii@",
"@iiiiiippppppaaaaaassssssdddddduuuuuuuuuuuuuuuuuu@",
"@iiiiiippppppaaaaaassssssdddddduuuuuuuuuuuuuuuuuu@",
"@iiiiiippppppaaaaaassssssdddddduuuuuuuuuuuuuuuuuu@",
"@iiiiiippppppaaaaaassssssdddddduuuuuuuuuuuuuuuuuu@",
"@iiiiiippppppaaaaaassssssdddddduuuuuuuuuuuuuuuuff@",
"@iiiiiippppppaaaaaassssssdddddduuuuuuuuuuuuuuuuff@",
"@ffffffuuuuuuiiiiiiiiiiiiiiiiiigggggguuuuuuhhhhhh@",
"@ffffffuuuuuuiiiiiiiiiiiiiiiiiigggggguuuuuuhhhhhh@",
"@ffffffuuuuuuiiiiiiiiiiiiiiiiiigggggguuuuuuhhhhhh@",
"@ffffffuuuuuuiiiiiiiiiiiiiiiiiigggggguuuuuuhhhhhh@",
"@ffffuuuuuuuuiiiiiiiiiiiiiiiiiigggguuuuuuhhhhhhhh@",
"@ffffuuuuuuuuiiiiiiiiiiiiiiiiiigggguuuuuuhhhhhhhh@",
"@@@ @@@@@@@@@ @@@@@@@@@@@@@ @@@@@@@@@@  @@@@@@@   ",
"@@   @  @@@@  @@@@@   @@@@@@@@@@ @@@@@@@  @ @@@@@ "
};
