/* XPM */
static char *_4bd69b13f424a06c0dadd53edc496099awOTmGjD0ZBZ8HU[] = {
/* columns rows colors chars-per-pixel */
"50 50 44 1 ",
"  c #6C9154",
". c #65884E",
"X c #7A9E63",
"o c #6F452C",
"O c #905E43",
"+ c #AA7D66",
"@ c #B4846D",
"# c #2B1E0D",
"$ c #281C0B",
"% c #2A1D0D",
"& c #2F200D",
"* c #7A4E33",
"= c #965F40",
"- c #B37B62",
"; c white",
": c #B6896C",
"> c #815339",
", c #774235",
"< c #B78272",
"1 c #523D89",
"2 c #BD8E72",
"3 c #2F1F0F",
"4 c #805136",
"5 c #6A4030",
"6 c #B57B67",
"7 c #AD806D",
"8 c #C69680",
"9 c #332411",
"0 c #BB8972",
"q c #9C725C",
"w c #BD8B72",
"e c #422A12",
"r c #83553B",
"t c #BE886C",
"y c #BD8E74",
"u c #3F2A15",
"i c #8F5E3E",
"p c #A26A47",
"a c #9C694C",
"s c #AC765A",
"d c #2C1E0E",
"f c #805334",
"g c #9D6A4C",
"h c #342512",
/* pixels */
"                                .               XX",
"ooooooOOOOOO++++++@@@@@@++++++####$$####%%&&&&&&X ",
"ooooooOOOOOO++++++@@@@@@++++++####$$####%%&&&&&&X ",
"ooooooOOOOOO++++++@@@@@@++++++############&&&&&&  ",
"ooooooOOOOOO++++++@@@@@@++++++############&&&&&&  ",
"ooooooOOOOOO++++++@@@@@@++++++############&&&&&&  ",
"ooooooOOOOOO++++++@@@@@@++++++############&&&&&& X",
"******======------;;;;;;@@@@@@::::::##########&&  ",
"******======------;;;;;;@@@@@@::::::##########&& X",
"******======------;;;;;;@@@@@@::::::############ X",
"******======------;;;;;;@@@@@@::::::############X ",
"******======------;;;;;;@@@@@@::::::############X ",
"******======------;;;;;;@@@@@@::::::############  ",
">>>>>>,,,,,,<<<<<<111111++++++222222######3333##  ",
">>>>>>,,,,,,<<<<<<111111++++++222222######3333##  ",
">>>>>>,,,,,,<<<<<<111111++++++222222######333333  ",
">>>>>>,,,,,,<<<<<<111111++++++222222######333333  ",
">>>>>>,,,,,,<<<<<<111111++++++222222######333333 X",
">>>>>>,,,,,,<<<<<<111111++++++222222######333333  ",
"444444,,,,,,555555666666777777888888999999$$$$$$  ",
"444444,,,,,,555555666666777777888888999999$$$$$$  ",
"444444,,,,,,555555666666777777888888999999$$$$$$  ",
"444444,,,,,,555555666666777777888888999999$$$$$$X ",
"444444,,,,,,555555666666777777888888999999$$$$$$  ",
"444444,,,,,,555555666666777777888888999999$$$$$$  ",
"******,,,,,,555555000000qqqqqqwwwwwweeeeee$$$$$$  ",
"******,,,,,,555555000000qqqqqqwwwwwweeeeee$$$$$$  ",
"******,,,,,,555555000000qqqqqqwwwwwweeeeee$$$$$$  ",
"******,,,,,,555555000000qqqqqqwwwwwweeeeee$$$$$$ X",
"******,,,,,,555555000000qqqqqqwwwwwweeeeee$$$$$$ X",
"******,,,,,,555555000000qqqqqqwwwwwweeeeee$$$$$$ X",
"rrrrrr,,,,,,tttttt111111000000yyyywwuuuuuu$$$$$$  ",
"rrrrrr,,,,,,tttttt111111000000yyyywwuuuuuu$$$$$$  ",
"rrrrrr,,,,,,tttttt111111000000yyyyyyuuuuuu$$$$$$  ",
"rrrrrr,,,,,,tttttt111111000000yyyyyyuuuuuu$$$$$$  ",
"rrrrrr,,,,,,tttttt111111000000yyyyyyuuuuuu$$$$$$  ",
"rrrrrr,,,,,,tttttt111111000000yyyyyyuuuuuu$$$$$$XX",
"rrrrrriiiiiipppppp;;;;;;aaaaaassssssdddddd###### X",
"rrrrrriiiiiipppppp;;;;;;aaaaaassssssdddddd######  ",
"rrrrrriiiiiipppppp;;;;;;aaaaaassssssdddddd######  ",
"rrrrrriiiiiipppppp;;;;;;aaaaaassssssdddddd######  ",
"rrrrrriiiiiipppppp;;;;;;aaaaaassssssdddddd######  ",
"rrrrrriiiiiipppppp;;;;;;aaaaaassssssdddddd###### X",
"******>>>>>>ffffff++++++gggggghhhhhh$$$$$$%%%%## X",
"******>>>>>>ffffff++++++gggggghhhhhh$$$$$$%%%%##  ",
"******>>>>>>ffffff++++++gggggghhhhhh$$$$$$%%%%%% X",
"******>>>>>>ffffff++++++gggggghhhhhh$$$$$$%%%%%%XX",
"******>>>>>>ffffff++++++gggggghhhhhh$$$$$$%%%%%% X",
"******>>>>>>ffffff++++++gggggghhhhhh$$$$$$%%%%%%  ",
"X                 .XXX    X  XX                   "
};
